<mxfile host="Electron" modified="2024-06-17T18:30:17.859Z" agent="Mozilla/5.0 (Windows NT 10.0; Win64; x64) AppleWebKit/537.36 (KHTML, like Gecko) draw.io/24.5.3 Chrome/124.0.6367.207 Electron/30.0.6 Safari/537.36" etag="KYeR_YYIn4tx6sKXe6Gr" version="24.5.3" type="device">
  <diagram id="C5RBs43oDa-KdzZeNtuy" name="Page-1">
    <mxGraphModel dx="1179" dy="683" grid="1" gridSize="10" guides="1" tooltips="1" connect="1" arrows="1" fold="1" page="1" pageScale="1" pageWidth="827" pageHeight="1169" math="0" shadow="0">
      <root>
        <mxCell id="WIyWlLk6GJQsqaUBKTNV-0" />
        <mxCell id="WIyWlLk6GJQsqaUBKTNV-1" parent="WIyWlLk6GJQsqaUBKTNV-0" />
        <mxCell id="BNZY-GQQ6ccpOPCzlgzK-45" value="HMI" style="rounded=0;whiteSpace=wrap;html=1;verticalAlign=top;" parent="WIyWlLk6GJQsqaUBKTNV-1" vertex="1">
          <mxGeometry x="260" y="269" width="310" height="97" as="geometry" />
        </mxCell>
        <mxCell id="BNZY-GQQ6ccpOPCzlgzK-42" value="Sensors" style="rounded=0;whiteSpace=wrap;html=1;verticalAlign=bottom;" parent="WIyWlLk6GJQsqaUBKTNV-1" vertex="1">
          <mxGeometry x="340" y="865" width="150" height="101" as="geometry" />
        </mxCell>
        <mxCell id="BNZY-GQQ6ccpOPCzlgzK-40" value="Actuators" style="rounded=0;whiteSpace=wrap;html=1;verticalAlign=top;" parent="WIyWlLk6GJQsqaUBKTNV-1" vertex="1">
          <mxGeometry x="590" y="440" width="150" height="261" as="geometry" />
        </mxCell>
        <mxCell id="BNZY-GQQ6ccpOPCzlgzK-19" value="1 wire" style="edgeStyle=orthogonalEdgeStyle;rounded=0;orthogonalLoop=1;jettySize=auto;html=1;entryX=0;entryY=0.5;entryDx=0;entryDy=0;exitX=1;exitY=0.5;exitDx=0;exitDy=0;" parent="WIyWlLk6GJQsqaUBKTNV-1" source="BNZY-GQQ6ccpOPCzlgzK-0" target="BNZY-GQQ6ccpOPCzlgzK-18" edge="1">
          <mxGeometry x="0.5586" relative="1" as="geometry">
            <Array as="points">
              <mxPoint x="521" y="605" />
              <mxPoint x="521" y="497" />
            </Array>
            <mxPoint as="offset" />
            <mxPoint x="585" y="515" as="targetPoint" />
          </mxGeometry>
        </mxCell>
        <mxCell id="sVcyXuBf6ooVwLhxNdBt-4" style="edgeStyle=orthogonalEdgeStyle;rounded=0;orthogonalLoop=1;jettySize=auto;html=1;exitX=1;exitY=0.5;exitDx=0;exitDy=0;entryX=0;entryY=0.5;entryDx=0;entryDy=0;" parent="WIyWlLk6GJQsqaUBKTNV-1" source="BNZY-GQQ6ccpOPCzlgzK-0" target="vwfZsnpsiUT7no4WMjxy-0" edge="1">
          <mxGeometry relative="1" as="geometry">
            <Array as="points">
              <mxPoint x="521" y="605" />
              <mxPoint x="521" y="578" />
            </Array>
            <mxPoint x="644" y="578" as="targetPoint" />
          </mxGeometry>
        </mxCell>
        <mxCell id="vwfZsnpsiUT7no4WMjxy-1" value="PWM" style="edgeLabel;html=1;align=center;verticalAlign=middle;resizable=0;points=[];" vertex="1" connectable="0" parent="sVcyXuBf6ooVwLhxNdBt-4">
          <mxGeometry x="0.1899" y="3" relative="1" as="geometry">
            <mxPoint x="5" as="offset" />
          </mxGeometry>
        </mxCell>
        <mxCell id="vwfZsnpsiUT7no4WMjxy-4" style="edgeStyle=orthogonalEdgeStyle;rounded=0;orthogonalLoop=1;jettySize=auto;html=1;exitX=0;exitY=0.5;exitDx=0;exitDy=0;entryX=1;entryY=0.5;entryDx=0;entryDy=0;" edge="1" parent="WIyWlLk6GJQsqaUBKTNV-1" source="BNZY-GQQ6ccpOPCzlgzK-0" target="vwfZsnpsiUT7no4WMjxy-2">
          <mxGeometry relative="1" as="geometry">
            <Array as="points">
              <mxPoint x="270" y="605" />
              <mxPoint x="270" y="690" />
            </Array>
          </mxGeometry>
        </mxCell>
        <mxCell id="vwfZsnpsiUT7no4WMjxy-6" style="edgeStyle=orthogonalEdgeStyle;rounded=0;orthogonalLoop=1;jettySize=auto;html=1;exitX=0;exitY=0.5;exitDx=0;exitDy=0;entryX=1;entryY=0.5;entryDx=0;entryDy=0;" edge="1" parent="WIyWlLk6GJQsqaUBKTNV-1" source="BNZY-GQQ6ccpOPCzlgzK-0" target="vwfZsnpsiUT7no4WMjxy-2">
          <mxGeometry relative="1" as="geometry">
            <Array as="points">
              <mxPoint x="270" y="605" />
              <mxPoint x="270" y="690" />
            </Array>
          </mxGeometry>
        </mxCell>
        <mxCell id="BNZY-GQQ6ccpOPCzlgzK-0" value="Board" style="rounded=1;whiteSpace=wrap;html=1;fillColor=#d5e8d4;strokeColor=#82b366;" parent="WIyWlLk6GJQsqaUBKTNV-1" vertex="1">
          <mxGeometry x="335" y="545" width="160" height="120" as="geometry" />
        </mxCell>
        <mxCell id="VwEL4zslP9OhHKFk7XXc-13" style="edgeStyle=orthogonalEdgeStyle;rounded=0;orthogonalLoop=1;jettySize=auto;html=1;exitX=0.5;exitY=0;exitDx=0;exitDy=0;entryX=0.5;entryY=1;entryDx=0;entryDy=0;" parent="WIyWlLk6GJQsqaUBKTNV-1" source="BNZY-GQQ6ccpOPCzlgzK-6" target="BNZY-GQQ6ccpOPCzlgzK-0" edge="1">
          <mxGeometry relative="1" as="geometry">
            <Array as="points">
              <mxPoint x="415" y="860" />
              <mxPoint x="415" y="860" />
            </Array>
          </mxGeometry>
        </mxCell>
        <mxCell id="sVcyXuBf6ooVwLhxNdBt-35" value="ADC" style="edgeLabel;html=1;align=center;verticalAlign=middle;resizable=0;points=[];" parent="VwEL4zslP9OhHKFk7XXc-13" vertex="1" connectable="0">
          <mxGeometry x="-0.7901" relative="1" as="geometry">
            <mxPoint y="-12" as="offset" />
          </mxGeometry>
        </mxCell>
        <mxCell id="BNZY-GQQ6ccpOPCzlgzK-6" value="Temp sensor LM35" style="whiteSpace=wrap;html=1;rounded=1;fillColor=#ffe6cc;strokeColor=#d79b00;" parent="WIyWlLk6GJQsqaUBKTNV-1" vertex="1">
          <mxGeometry x="355" y="885.5" width="120" height="60" as="geometry" />
        </mxCell>
        <mxCell id="BNZY-GQQ6ccpOPCzlgzK-18" value="Addressable leds" style="whiteSpace=wrap;html=1;rounded=1;fillColor=#fff2cc;strokeColor=#d6b656;" parent="WIyWlLk6GJQsqaUBKTNV-1" vertex="1">
          <mxGeometry x="609" y="467" width="120" height="60" as="geometry" />
        </mxCell>
        <mxCell id="sVcyXuBf6ooVwLhxNdBt-8" style="edgeStyle=orthogonalEdgeStyle;rounded=0;orthogonalLoop=1;jettySize=auto;html=1;exitX=0.5;exitY=1;exitDx=0;exitDy=0;entryX=0.5;entryY=0;entryDx=0;entryDy=0;startArrow=classic;startFill=1;" parent="WIyWlLk6GJQsqaUBKTNV-1" source="sVcyXuBf6ooVwLhxNdBt-7" target="BNZY-GQQ6ccpOPCzlgzK-0" edge="1">
          <mxGeometry relative="1" as="geometry">
            <Array as="points">
              <mxPoint x="496" y="420" />
              <mxPoint x="415" y="420" />
            </Array>
          </mxGeometry>
        </mxCell>
        <mxCell id="sVcyXuBf6ooVwLhxNdBt-9" value="I2C" style="edgeLabel;html=1;align=center;verticalAlign=middle;resizable=0;points=[];" parent="sVcyXuBf6ooVwLhxNdBt-8" vertex="1" connectable="0">
          <mxGeometry x="-0.3304" y="-2" relative="1" as="geometry">
            <mxPoint x="20" y="-28" as="offset" />
          </mxGeometry>
        </mxCell>
        <mxCell id="sVcyXuBf6ooVwLhxNdBt-7" value="OLED" style="whiteSpace=wrap;html=1;rounded=1;fillColor=#e1d5e7;strokeColor=#9673a6;" parent="WIyWlLk6GJQsqaUBKTNV-1" vertex="1">
          <mxGeometry x="436" y="287.5" width="120" height="60" as="geometry" />
        </mxCell>
        <mxCell id="sVcyXuBf6ooVwLhxNdBt-11" style="edgeStyle=orthogonalEdgeStyle;rounded=0;orthogonalLoop=1;jettySize=auto;html=1;exitX=0.5;exitY=1;exitDx=0;exitDy=0;entryX=0.5;entryY=0;entryDx=0;entryDy=0;" parent="WIyWlLk6GJQsqaUBKTNV-1" source="sVcyXuBf6ooVwLhxNdBt-10" target="BNZY-GQQ6ccpOPCzlgzK-0" edge="1">
          <mxGeometry relative="1" as="geometry">
            <Array as="points">
              <mxPoint x="336" y="348" />
              <mxPoint x="336" y="420" />
              <mxPoint x="415" y="420" />
            </Array>
          </mxGeometry>
        </mxCell>
        <mxCell id="sVcyXuBf6ooVwLhxNdBt-12" value="Dedicated periph." style="edgeLabel;html=1;align=center;verticalAlign=middle;resizable=0;points=[];" parent="sVcyXuBf6ooVwLhxNdBt-11" vertex="1" connectable="0">
          <mxGeometry x="-0.5786" relative="1" as="geometry">
            <mxPoint x="5" y="-13" as="offset" />
          </mxGeometry>
        </mxCell>
        <mxCell id="sVcyXuBf6ooVwLhxNdBt-10" value="Encoder" style="whiteSpace=wrap;html=1;rounded=1;fillColor=#e1d5e7;strokeColor=#9673a6;" parent="WIyWlLk6GJQsqaUBKTNV-1" vertex="1">
          <mxGeometry x="275" y="287.5" width="120" height="60" as="geometry" />
        </mxCell>
        <mxCell id="sVcyXuBf6ooVwLhxNdBt-28" style="edgeStyle=orthogonalEdgeStyle;rounded=0;orthogonalLoop=1;jettySize=auto;html=1;exitX=0;exitY=0.5;exitDx=0;exitDy=0;entryX=1;entryY=0.5;entryDx=0;entryDy=0;startArrow=classic;startFill=1;" parent="WIyWlLk6GJQsqaUBKTNV-1" source="sVcyXuBf6ooVwLhxNdBt-20" target="BNZY-GQQ6ccpOPCzlgzK-0" edge="1">
          <mxGeometry relative="1" as="geometry">
            <Array as="points">
              <mxPoint x="521" y="658" />
              <mxPoint x="521" y="605" />
            </Array>
          </mxGeometry>
        </mxCell>
        <mxCell id="sVcyXuBf6ooVwLhxNdBt-29" value="SPI" style="edgeLabel;html=1;align=center;verticalAlign=middle;resizable=0;points=[];" parent="sVcyXuBf6ooVwLhxNdBt-28" vertex="1" connectable="0">
          <mxGeometry x="-0.3542" y="-3" relative="1" as="geometry">
            <mxPoint x="1" y="3" as="offset" />
          </mxGeometry>
        </mxCell>
        <mxCell id="sVcyXuBf6ooVwLhxNdBt-20" value="Shift reg w leds" style="whiteSpace=wrap;html=1;rounded=1;fillColor=#fff2cc;strokeColor=#d6b656;" parent="WIyWlLk6GJQsqaUBKTNV-1" vertex="1">
          <mxGeometry x="609" y="628" width="120" height="60" as="geometry" />
        </mxCell>
        <mxCell id="sVcyXuBf6ooVwLhxNdBt-30" value="Other" style="rounded=0;whiteSpace=wrap;html=1;verticalAlign=top;" parent="WIyWlLk6GJQsqaUBKTNV-1" vertex="1">
          <mxGeometry x="55" y="548" width="150" height="261" as="geometry" />
        </mxCell>
        <mxCell id="sVcyXuBf6ooVwLhxNdBt-36" style="edgeStyle=orthogonalEdgeStyle;rounded=0;orthogonalLoop=1;jettySize=auto;html=1;exitX=1;exitY=0.5;exitDx=0;exitDy=0;entryX=0;entryY=0.5;entryDx=0;entryDy=0;startArrow=classic;startFill=1;" parent="WIyWlLk6GJQsqaUBKTNV-1" source="sVcyXuBf6ooVwLhxNdBt-31" target="BNZY-GQQ6ccpOPCzlgzK-0" edge="1">
          <mxGeometry relative="1" as="geometry">
            <Array as="points">
              <mxPoint x="298" y="605" />
              <mxPoint x="298" y="605" />
            </Array>
          </mxGeometry>
        </mxCell>
        <mxCell id="sVcyXuBf6ooVwLhxNdBt-39" value="SPI" style="edgeLabel;html=1;align=center;verticalAlign=middle;resizable=0;points=[];" parent="sVcyXuBf6ooVwLhxNdBt-36" vertex="1" connectable="0">
          <mxGeometry x="-0.5725" y="-1" relative="1" as="geometry">
            <mxPoint x="21" y="-1" as="offset" />
          </mxGeometry>
        </mxCell>
        <mxCell id="sVcyXuBf6ooVwLhxNdBt-31" value="EEPROM" style="whiteSpace=wrap;html=1;rounded=1;fillColor=#dae8fc;strokeColor=#6c8ebf;" parent="WIyWlLk6GJQsqaUBKTNV-1" vertex="1">
          <mxGeometry x="68" y="575" width="120" height="60" as="geometry" />
        </mxCell>
        <mxCell id="sVcyXuBf6ooVwLhxNdBt-33" value="SPI" style="edgeLabel;html=1;align=center;verticalAlign=middle;resizable=0;points=[];" parent="WIyWlLk6GJQsqaUBKTNV-1" vertex="1" connectable="0">
          <mxGeometry x="89.5520282023092" y="790.4444650905532" as="geometry" />
        </mxCell>
        <mxCell id="sVcyXuBf6ooVwLhxNdBt-38" style="edgeStyle=orthogonalEdgeStyle;rounded=0;orthogonalLoop=1;jettySize=auto;html=1;exitX=1;exitY=0.5;exitDx=0;exitDy=0;entryX=0;entryY=0.5;entryDx=0;entryDy=0;startArrow=classic;startFill=1;" parent="WIyWlLk6GJQsqaUBKTNV-1" source="sVcyXuBf6ooVwLhxNdBt-34" target="BNZY-GQQ6ccpOPCzlgzK-0" edge="1">
          <mxGeometry relative="1" as="geometry">
            <Array as="points">
              <mxPoint x="270" y="766" />
              <mxPoint x="270" y="605" />
            </Array>
          </mxGeometry>
        </mxCell>
        <mxCell id="sVcyXuBf6ooVwLhxNdBt-41" value="GPIO" style="edgeLabel;html=1;align=center;verticalAlign=middle;resizable=0;points=[];" parent="sVcyXuBf6ooVwLhxNdBt-38" vertex="1" connectable="0">
          <mxGeometry x="-0.735" y="-2" relative="1" as="geometry">
            <mxPoint x="9" y="-2" as="offset" />
          </mxGeometry>
        </mxCell>
        <mxCell id="sVcyXuBf6ooVwLhxNdBt-34" value="GPIO" style="whiteSpace=wrap;html=1;rounded=1;fillColor=#dae8fc;strokeColor=#6c8ebf;" parent="WIyWlLk6GJQsqaUBKTNV-1" vertex="1">
          <mxGeometry x="70" y="736" width="120" height="60" as="geometry" />
        </mxCell>
        <mxCell id="vwfZsnpsiUT7no4WMjxy-0" value="Servo" style="whiteSpace=wrap;html=1;rounded=1;fillColor=#fff2cc;strokeColor=#d6b656;" vertex="1" parent="WIyWlLk6GJQsqaUBKTNV-1">
          <mxGeometry x="607" y="548" width="120" height="60" as="geometry" />
        </mxCell>
        <mxCell id="vwfZsnpsiUT7no4WMjxy-3" style="edgeStyle=orthogonalEdgeStyle;rounded=0;orthogonalLoop=1;jettySize=auto;html=1;exitX=1;exitY=0.5;exitDx=0;exitDy=0;entryX=0;entryY=0.5;entryDx=0;entryDy=0;" edge="1" parent="WIyWlLk6GJQsqaUBKTNV-1" source="vwfZsnpsiUT7no4WMjxy-2" target="BNZY-GQQ6ccpOPCzlgzK-0">
          <mxGeometry relative="1" as="geometry">
            <Array as="points">
              <mxPoint x="270" y="690" />
              <mxPoint x="270" y="605" />
            </Array>
          </mxGeometry>
        </mxCell>
        <mxCell id="vwfZsnpsiUT7no4WMjxy-5" value="I2C" style="edgeLabel;html=1;align=center;verticalAlign=middle;resizable=0;points=[];" vertex="1" connectable="0" parent="vwfZsnpsiUT7no4WMjxy-3">
          <mxGeometry x="-0.6299" relative="1" as="geometry">
            <mxPoint x="9" as="offset" />
          </mxGeometry>
        </mxCell>
        <mxCell id="vwfZsnpsiUT7no4WMjxy-2" value="I2C breakout" style="whiteSpace=wrap;html=1;rounded=1;fillColor=#dae8fc;strokeColor=#6c8ebf;" vertex="1" parent="WIyWlLk6GJQsqaUBKTNV-1">
          <mxGeometry x="68" y="660" width="120" height="60" as="geometry" />
        </mxCell>
      </root>
    </mxGraphModel>
  </diagram>
</mxfile>
